# xmcd
#
# Track frame offsets: 
#        150
#        45813
#        66226
#        88639
#        105892
#        152662
#        182533
#
# Disc length: 2779 seconds
#
# Revision: 0
# Processed by: cddbd v1.5.2PL0 Copyright (c) Steve Scherf et al.
# Submitted via: ExactAudioCopy v1.0b1
#
DISCID=440ad907
DTITLE=Albert King - Blues At Sunrise
DYEAR=1973
DGENRE=Modern Electric Blues
TTITLE0=Don't Burn Down The Bridge ('Cause You Might Wanna Come Back A
TTITLE0=cross)
TTITLE1=I Believe To My Soul
TTITLE2=For The Love Of A Woman
TTITLE3=Blues At Sunrise
TTITLE4=I'll Play The Blues For You
TTITLE5=Little Brother (Make A Way)
TTITLE6=Roadhouse Blues
EXTD=
EXTT0=
EXTT1=
EXTT2=
EXTT3=
EXTT4=
EXTT5=
EXTT6=
PLAYORDER=
